<?xml version="1.0" ?><!DOCTYPE svg  PUBLIC '-//W3C//DTD SVG 1.1//EN'  'http://www.w3.org/Graphics/SVG/1.1/DTD/svg11.dtd'><svg enable-background="new 0 0 100 100" height="100px" id="Layer_1" version="1.1" viewBox="0 0 100 100" width="100px" xml:space="preserve" xmlns="http://www.w3.org/2000/svg" xmlns:xlink="http://www.w3.org/1999/xlink"><g><path d="M37,37c2.206,0,4-1.57,4-3.5v-4c0-0.644-0.213-1.239-0.561-1.757l2.116-1.411c0.459-0.306,0.583-0.927,0.277-1.387   c-0.307-0.459-0.928-0.585-1.387-0.277l-2.61,1.74C38.283,26.156,37.665,26,37,26c-2.206,0-4,1.57-4,3.5v4   C33,35.43,34.794,37,37,37z M35,29.5c0-0.813,0.916-1.5,2-1.5s2,0.687,2,1.5v4c0,0.813-0.916,1.5-2,1.5s-2-0.687-2-1.5V29.5z"/><path d="M84,45h-3v-4.79c0-1.494-1.346-2.21-3-2.21H67c-1.654,0-3,0.716-3,2.21v10.624l-10.066,0.668   C53.408,51.537,53,51.975,53,52.5V55h-7.119c0.062-1,0.102-0.663,0.109-0.882l8.783-10.86c0.207-0.254,0.277-0.658,0.187-0.974   c-0.091-0.316-0.332-0.598-0.644-0.702l-3-1.016c-0.328-0.109-0.69-0.048-0.958,0.173L46,44.365v-4.151C46,38.718,44.654,38,43,38   H32c-1.594,0-2.902,0.88-2.995,2.302l-3.964,13.326C25.014,53.72,25,54.002,25,54.098C25,54.348,25.049,54,25.119,55H25h-1v2h1v27   h28h2h0.949h2.002H61h3h4h1h7v-2h-7V68h12v-6h-0.118C80.951,61,81,61.037,81,60.79V61h3c1.654,0,3-1.846,3-3.5v-10   C87,45.846,85.654,45,84,45z M46,46.968l5.212-4.343l1.095,0.365L46,50.699V46.968z M55,53.436l10.066-0.668   C65.592,52.732,66,52.296,66,51.77V40.21c0-0.336,0.411-0.21,1-0.21h11c0.589,0,1-0.126,1,0.21V45h-6c-1.654,0-3,0.846-3,2.5v10   c0,1.654,1.346,3.5,3,3.5h5.963c-0.109,0.396-0.473,1-0.963,1H67c-0.589,0-1-0.874-1-1.21V55.5V55h-1H55V53.436z M30.959,40.497   C30.986,40.405,31,40.56,31,40.464C31,40.077,31.458,40,32,40h11c0.542,0,1-0.173,1,0.214V46.5v7v0.286C44,54.173,43.542,55,43,55   h-3v-2.5c0-0.504-0.375-0.93-0.876-0.992l-6.79-0.849l1.614-4.843c0.175-0.524-0.108-1.09-0.632-1.265   c-0.526-0.177-1.091,0.109-1.265,0.632l-2,6c-0.095,0.283-0.057,0.596,0.103,0.85c0.16,0.253,0.425,0.422,0.722,0.459L38,53.383V55   H28c-0.492,0-0.915-0.52-0.989-0.859L30.959,40.497z M53.016,62L53,82H39.083H27V58.5V57h1h15h11h10h0.016l-0.014,4.297   C64.004,61.537,64.038,61,64.104,62H64H53.016z M60,82h-1.949l0.7-14H60V82z M63.049,82H62V68h1.749L63.049,82z M67,82h-1.949   l0.7-14H67V82z M79,66H69h-4.2H61h-4.15l-0.801,16H55V64h12h11h1V66z M85,57.5c0,0.551-0.449,1.5-1,1.5h-4h-7   c-0.551,0-1-0.949-1-1.5v-10c0-0.551,0.449-0.5,1-0.5h7h4c0.551,0,1-0.051,1,0.5V57.5z"/><path d="M30.628,33.929C30.749,33.977,30.875,34,31,34c0.007,0,0.012,0,0.02,0c0.552,0,1-0.698,1-1.25   c0-0.229-0.077-0.564-0.206-0.733L30,28.264V19.5c0-1.654-1.346-2.5-3-2.5H16c-1.654,0-3,0.846-3,2.5v9c0,1.654,1.346,3.5,3,3.5   h9.808L30.628,33.929z M15,28.5v-9c0-0.551,0.449-0.5,1-0.5h11c0.551,0,1-0.051,1,0.5v9c0,0.155,0.036,0.309,0.105,0.447   l0.824,1.646l-2.558-0.773C26.253,29.774,26.127,30,26,30H16C15.449,30,15,29.051,15,28.5z"/><path d="M50,34h12c0.553,0,1-0.448,1-1V18c0-0.552-0.447-1-1-1H50c-0.552,0-1,0.448-1,1v15C49,33.552,49.448,34,50,34z M51,19h10   v13H51V19z"/><path d="M68.664,27.578C68.247,28.13,68,28.79,68,29.5v4c0,1.93,1.794,3.5,4,3.5s4-1.57,4-3.5v-4c0-1.93-1.794-3.5-4-3.5   c-0.622,0-1.203,0.135-1.729,0.357l-1.564-1.564c-0.391-0.391-1.023-0.391-1.414,0s-0.391,1.023,0,1.414L68.664,27.578z M70,29.5   c0-0.813,0.916-1.5,2-1.5s2,0.687,2,1.5v4c0,0.813-0.916,1.5-2,1.5s-2-0.687-2-1.5V29.5z"/><path d="M24,22h-6c-0.552,0-1,0.448-1,1s0.448,1,1,1h6c0.552,0,1-0.448,1-1S24.552,22,24,22z"/><path d="M24,25h-6c-0.552,0-1,0.448-1,1s0.448,1,1,1h6c0.552,0,1-0.448,1-1S24.552,25,24,25z"/><path d="M59,22h-6c-0.553,0-1,0.448-1,1s0.447,1,1,1h6c0.553,0,1-0.448,1-1S59.553,22,59,22z"/><path d="M59,25h-6c-0.553,0-1,0.448-1,1s0.447,1,1,1h6c0.553,0,1-0.448,1-1S59.553,25,59,25z"/></g></svg>